<svg xmlns="http://www.w3.org/2000/svg" xmlns:xlink="http://www.w3.org/1999/xlink" width="1200" zoomAndPan="magnify" viewBox="0 0 900 525.000007" height="700" preserveAspectRatio="xMidYMid meet" version="1.0"><defs><filter x="0%" y="0%" width="100%" height="100%" id="7a8325dee3"><feColorMatrix values="0 0 0 0 1 0 0 0 0 1 0 0 0 0 1 0 0 0 1 0" color-interpolation-filters="sRGB"/></filter><g/><clipPath id="77b6dd3928"><path d="M 0.855469 0 L 899.144531 0 L 899.144531 524 L 0.855469 524 Z M 0.855469 0 " clip-rule="nonzero"/></clipPath><clipPath id="8ab7dea648"><path d="M 66.726562 223.726562 L 126.34375 223.726562 L 126.34375 283.34375 L 66.726562 283.34375 Z M 66.726562 223.726562 " clip-rule="nonzero"/></clipPath><clipPath id="ced634f871"><path d="M 96.535156 223.726562 C 80.070312 223.726562 66.726562 237.070312 66.726562 253.535156 C 66.726562 270 80.070312 283.34375 96.535156 283.34375 C 113 283.34375 126.34375 270 126.34375 253.535156 C 126.34375 237.070312 113 223.726562 96.535156 223.726562 " clip-rule="nonzero"/></clipPath><clipPath id="19fe0cc7f3"><path d="M 274.367188 28.523438 L 333.988281 28.523438 L 333.988281 88.144531 L 274.367188 88.144531 Z M 274.367188 28.523438 " clip-rule="nonzero"/></clipPath><clipPath id="224f548d90"><path d="M 304.179688 28.523438 C 287.714844 28.523438 274.367188 41.871094 274.367188 58.332031 C 274.367188 74.796875 287.714844 88.144531 304.179688 88.144531 C 320.640625 88.144531 333.988281 74.796875 333.988281 58.332031 C 333.988281 41.871094 320.640625 28.523438 304.179688 28.523438 " clip-rule="nonzero"/></clipPath><clipPath id="5638f4bfbe"><path d="M 197.210938 435.109375 L 256.832031 435.109375 L 256.832031 494.730469 L 197.210938 494.730469 Z M 197.210938 435.109375 " clip-rule="nonzero"/></clipPath><clipPath id="d64713a184"><path d="M 227.019531 435.109375 C 210.558594 435.109375 197.210938 448.457031 197.210938 464.917969 C 197.210938 481.382812 210.558594 494.730469 227.019531 494.730469 C 243.484375 494.730469 256.832031 481.382812 256.832031 464.917969 C 256.832031 448.457031 243.484375 435.109375 227.019531 435.109375 " clip-rule="nonzero"/></clipPath><clipPath id="a1c10fc1f5"><path d="M 393.84375 222.230469 L 453.460938 222.230469 L 453.460938 281.847656 L 393.84375 281.847656 Z M 393.84375 222.230469 " clip-rule="nonzero"/></clipPath><clipPath id="39d824a28d"><path d="M 423.652344 222.230469 C 407.1875 222.230469 393.84375 235.574219 393.84375 252.039062 C 393.84375 268.503906 407.1875 281.847656 423.652344 281.847656 C 440.113281 281.847656 453.460938 268.503906 453.460938 252.039062 C 453.460938 235.574219 440.113281 222.230469 423.652344 222.230469 " clip-rule="nonzero"/></clipPath><clipPath id="97e04248c5"><path d="M 520.96875 28.523438 L 580.589844 28.523438 L 580.589844 88.144531 L 520.96875 88.144531 Z M 520.96875 28.523438 " clip-rule="nonzero"/></clipPath><clipPath id="425f67461d"><path d="M 550.777344 28.523438 C 534.316406 28.523438 520.96875 41.871094 520.96875 58.332031 C 520.96875 74.796875 534.316406 88.144531 550.777344 88.144531 C 567.242188 88.144531 580.589844 74.796875 580.589844 58.332031 C 580.589844 41.871094 567.242188 28.523438 550.777344 28.523438 " clip-rule="nonzero"/></clipPath><clipPath id="4d1799af39"><path d="M 773.65625 128.792969 L 833.273438 128.792969 L 833.273438 188.414062 L 773.65625 188.414062 Z M 773.65625 128.792969 " clip-rule="nonzero"/></clipPath><clipPath id="7252d36f6b"><path d="M 803.464844 128.792969 C 787 128.792969 773.65625 142.140625 773.65625 158.601562 C 773.65625 175.066406 787 188.414062 803.464844 188.414062 C 819.929688 188.414062 833.273438 175.066406 833.273438 158.601562 C 833.273438 142.140625 819.929688 128.792969 803.464844 128.792969 " clip-rule="nonzero"/></clipPath><clipPath id="0841af9c8b"><path d="M 710.34375 354.632812 L 769.964844 354.632812 L 769.964844 414.25 L 710.34375 414.25 Z M 710.34375 354.632812 " clip-rule="nonzero"/></clipPath><clipPath id="e6043203db"><path d="M 740.152344 354.632812 C 723.691406 354.632812 710.34375 367.976562 710.34375 384.441406 C 710.34375 400.90625 723.691406 414.25 740.152344 414.25 C 756.617188 414.25 769.964844 400.90625 769.964844 384.441406 C 769.964844 367.976562 756.617188 354.632812 740.152344 354.632812 " clip-rule="nonzero"/></clipPath><clipPath id="aa9edf2fe1"><path d="M 485.894531 441.308594 L 545.511719 441.308594 L 545.511719 500.929688 L 485.894531 500.929688 Z M 485.894531 441.308594 " clip-rule="nonzero"/></clipPath><clipPath id="1aa35f9a94"><path d="M 515.703125 441.308594 C 499.238281 441.308594 485.894531 454.65625 485.894531 471.117188 C 485.894531 487.582031 499.238281 500.929688 515.703125 500.929688 C 532.167969 500.929688 545.511719 487.582031 545.511719 471.117188 C 545.511719 454.65625 532.167969 441.308594 515.703125 441.308594 " clip-rule="nonzero"/></clipPath><mask id="ff72fd6ee9"><g filter="url(#7a8325dee3)"><rect x="-90" width="1080" fill="#000000" y="-52.500001" height="630.000008" fill-opacity="0.3882"/></g></mask><clipPath id="7df16129c2"><path d="M 0.335938 0.390625 L 35.425781 0.390625 L 35.425781 35 L 0.335938 35 Z M 0.335938 0.390625 " clip-rule="nonzero"/></clipPath><clipPath id="a8608f6af8"><path d="M 13.0625 0.390625 L 22.6875 0.390625 C 26.0625 0.390625 29.296875 1.730469 31.683594 4.117188 C 34.070312 6.503906 35.410156 9.742188 35.410156 13.117188 L 35.410156 21.945312 C 35.410156 25.320312 34.070312 28.558594 31.683594 30.945312 C 29.296875 33.332031 26.0625 34.671875 22.6875 34.671875 L 13.0625 34.671875 C 9.6875 34.671875 6.449219 33.332031 4.0625 30.945312 C 1.675781 28.558594 0.335938 25.320312 0.335938 21.945312 L 0.335938 13.117188 C 0.335938 9.742188 1.675781 6.503906 4.0625 4.117188 C 6.449219 1.730469 9.6875 0.390625 13.0625 0.390625 " clip-rule="nonzero"/></clipPath><clipPath id="b266549789"><rect x="0" width="36" y="0" height="36"/></clipPath><mask id="437e9c1029"><g filter="url(#7a8325dee3)"><rect x="-90" width="1080" fill="#000000" y="-52.500001" height="630.000008" fill-opacity="0.3882"/></g></mask><clipPath id="9f4667baa5"><path d="M 1.027344 0.632812 L 36.113281 0.632812 L 36.113281 35 L 1.027344 35 Z M 1.027344 0.632812 " clip-rule="nonzero"/></clipPath><clipPath id="e497973816"><path d="M 13.75 0.632812 L 23.375 0.632812 C 26.75 0.632812 29.988281 1.972656 32.375 4.359375 C 34.761719 6.746094 36.101562 9.984375 36.101562 13.359375 L 36.101562 22.1875 C 36.101562 25.5625 34.761719 28.796875 32.375 31.183594 C 29.988281 33.570312 26.75 34.914062 23.375 34.914062 L 13.75 34.914062 C 10.375 34.914062 7.140625 33.570312 4.753906 31.183594 C 2.367188 28.796875 1.027344 25.5625 1.027344 22.1875 L 1.027344 13.359375 C 1.027344 9.984375 2.367188 6.746094 4.753906 4.359375 C 7.140625 1.972656 10.375 0.632812 13.75 0.632812 " clip-rule="nonzero"/></clipPath><clipPath id="76a562985c"><rect x="0" width="37" y="0" height="36"/></clipPath><mask id="cf581f7954"><g filter="url(#7a8325dee3)"><rect x="-90" width="1080" fill="#000000" y="-52.500001" height="630.000008" fill-opacity="0.3882"/></g></mask><clipPath id="abca7f9f8b"><path d="M 1.054688 0.589844 L 36.144531 0.589844 L 36.144531 35 L 1.054688 35 Z M 1.054688 0.589844 " clip-rule="nonzero"/></clipPath><clipPath id="f7925e0690"><path d="M 13.78125 0.589844 L 23.402344 0.589844 C 26.777344 0.589844 30.015625 1.929688 32.402344 4.316406 C 34.789062 6.703125 36.128906 9.941406 36.128906 13.316406 L 36.128906 22.144531 C 36.128906 25.519531 34.789062 28.753906 32.402344 31.140625 C 30.015625 33.527344 26.777344 34.871094 23.402344 34.871094 L 13.78125 34.871094 C 10.402344 34.871094 7.167969 33.527344 4.78125 31.140625 C 2.394531 28.753906 1.054688 25.519531 1.054688 22.144531 L 1.054688 13.316406 C 1.054688 9.941406 2.394531 6.703125 4.78125 4.316406 C 7.167969 1.929688 10.402344 0.589844 13.78125 0.589844 " clip-rule="nonzero"/></clipPath><clipPath id="02c10d6e4c"><rect x="0" width="37" y="0" height="36"/></clipPath><mask id="997867550c"><g filter="url(#7a8325dee3)"><rect x="-90" width="1080" fill="#000000" y="-52.500001" height="630.000008" fill-opacity="0.3882"/></g></mask><clipPath id="45291a606b"><path d="M 0.929688 0.640625 L 36.019531 0.640625 L 36.019531 35 L 0.929688 35 Z M 0.929688 0.640625 " clip-rule="nonzero"/></clipPath><clipPath id="488a1ad525"><path d="M 13.652344 0.640625 L 23.277344 0.640625 C 26.652344 0.640625 29.890625 1.980469 32.277344 4.367188 C 34.664062 6.753906 36.003906 9.992188 36.003906 13.367188 L 36.003906 22.195312 C 36.003906 25.570312 34.664062 28.804688 32.277344 31.191406 C 29.890625 33.578125 26.652344 34.917969 23.277344 34.917969 L 13.652344 34.917969 C 10.277344 34.917969 7.042969 33.578125 4.65625 31.191406 C 2.269531 28.804688 0.929688 25.570312 0.929688 22.195312 L 0.929688 13.367188 C 0.929688 9.992188 2.269531 6.753906 4.65625 4.367188 C 7.042969 1.980469 10.277344 0.640625 13.652344 0.640625 " clip-rule="nonzero"/></clipPath><clipPath id="99e059c19f"><rect x="0" width="37" y="0" height="36"/></clipPath><mask id="ed64b89c48"><g filter="url(#7a8325dee3)"><rect x="-90" width="1080" fill="#000000" y="-52.500001" height="630.000008" fill-opacity="0.3882"/></g></mask><clipPath id="ab6aa495d0"><path d="M 0.34375 0.300781 L 35.433594 0.300781 L 35.433594 35 L 0.34375 35 Z M 0.34375 0.300781 " clip-rule="nonzero"/></clipPath><clipPath id="0b5271120a"><path d="M 13.070312 0.300781 L 22.695312 0.300781 C 26.070312 0.300781 29.304688 1.640625 31.691406 4.027344 C 34.078125 6.414062 35.421875 9.652344 35.421875 13.027344 L 35.421875 21.855469 C 35.421875 25.230469 34.078125 28.46875 31.691406 30.855469 C 29.304688 33.242188 26.070312 34.582031 22.695312 34.582031 L 13.070312 34.582031 C 9.695312 34.582031 6.457031 33.242188 4.070312 30.855469 C 1.683594 28.46875 0.34375 25.230469 0.34375 21.855469 L 0.34375 13.027344 C 0.34375 9.652344 1.683594 6.414062 4.070312 4.027344 C 6.457031 1.640625 9.695312 0.300781 13.070312 0.300781 " clip-rule="nonzero"/></clipPath><clipPath id="bb74dc4d32"><rect x="0" width="36" y="0" height="36"/></clipPath><mask id="2e973ede59"><g filter="url(#7a8325dee3)"><rect x="-90" width="1080" fill="#000000" y="-52.500001" height="630.000008" fill-opacity="0.3882"/></g></mask><clipPath id="908fddbcf8"><path d="M 0.929688 0.683594 L 36.019531 0.683594 L 36.019531 35 L 0.929688 35 Z M 0.929688 0.683594 " clip-rule="nonzero"/></clipPath><clipPath id="487099b43f"><path d="M 13.652344 0.683594 L 23.277344 0.683594 C 26.652344 0.683594 29.890625 2.023438 32.277344 4.410156 C 34.664062 6.796875 36.003906 10.03125 36.003906 13.40625 L 36.003906 22.234375 C 36.003906 25.609375 34.664062 28.847656 32.277344 31.234375 C 29.890625 33.621094 26.652344 34.960938 23.277344 34.960938 L 13.652344 34.960938 C 10.277344 34.960938 7.042969 33.621094 4.65625 31.234375 C 2.269531 28.847656 0.929688 25.609375 0.929688 22.234375 L 0.929688 13.40625 C 0.929688 10.03125 2.269531 6.796875 4.65625 4.410156 C 7.042969 2.023438 10.277344 0.683594 13.652344 0.683594 " clip-rule="nonzero"/></clipPath><clipPath id="c271ae8a29"><rect x="0" width="37" y="0" height="36"/></clipPath><mask id="30893c0baf"><g filter="url(#7a8325dee3)"><rect x="-90" width="1080" fill="#000000" y="-52.500001" height="630.000008" fill-opacity="0.3882"/></g></mask><clipPath id="3d7b8a900d"><path d="M 0.742188 0.1875 L 35.828125 0.1875 L 35.828125 35 L 0.742188 35 Z M 0.742188 0.1875 " clip-rule="nonzero"/></clipPath><clipPath id="096517e3f3"><path d="M 13.464844 0.1875 L 23.089844 0.1875 C 26.464844 0.1875 29.703125 1.527344 32.089844 3.914062 C 34.476562 6.300781 35.816406 9.539062 35.816406 12.914062 L 35.816406 21.742188 C 35.816406 25.117188 34.476562 28.355469 32.089844 30.742188 C 29.703125 33.128906 26.464844 34.46875 23.089844 34.46875 L 13.464844 34.46875 C 10.089844 34.46875 6.855469 33.128906 4.46875 30.742188 C 2.082031 28.355469 0.742188 25.117188 0.742188 21.742188 L 0.742188 12.914062 C 0.742188 9.539062 2.082031 6.300781 4.46875 3.914062 C 6.855469 1.527344 10.089844 0.1875 13.464844 0.1875 " clip-rule="nonzero"/></clipPath><clipPath id="66c749be52"><rect x="0" width="36" y="0" height="36"/></clipPath><mask id="2dd17140ab"><g filter="url(#7a8325dee3)"><rect x="-90" width="1080" fill="#000000" y="-52.500001" height="630.000008" fill-opacity="0.3882"/></g></mask><clipPath id="f6a9db180a"><path d="M 1.113281 1.132812 L 36.203125 1.132812 L 36.203125 36 L 1.113281 36 Z M 1.113281 1.132812 " clip-rule="nonzero"/></clipPath><clipPath id="37a382398d"><path d="M 13.839844 1.132812 L 23.464844 1.132812 C 26.839844 1.132812 30.074219 2.472656 32.460938 4.859375 C 34.847656 7.246094 36.191406 10.484375 36.191406 13.859375 L 36.191406 22.6875 C 36.191406 26.0625 34.847656 29.296875 32.460938 31.683594 C 30.074219 34.070312 26.839844 35.414062 23.464844 35.414062 L 13.839844 35.414062 C 10.464844 35.414062 7.226562 34.070312 4.839844 31.683594 C 2.453125 29.296875 1.113281 26.0625 1.113281 22.6875 L 1.113281 13.859375 C 1.113281 10.484375 2.453125 7.246094 4.839844 4.859375 C 7.226562 2.472656 10.464844 1.132812 13.839844 1.132812 " clip-rule="nonzero"/></clipPath><clipPath id="5c4a7ebe1f"><rect x="0" width="37" y="0" height="37"/></clipPath><mask id="929ea3c584"><g filter="url(#7a8325dee3)"><rect x="-90" width="1080" fill="#000000" y="-52.500001" height="630.000008" fill-opacity="0.3882"/></g></mask><clipPath id="cfc7f2f121"><path d="M 0.816406 0.351562 L 35.90625 0.351562 L 35.90625 35 L 0.816406 35 Z M 0.816406 0.351562 " clip-rule="nonzero"/></clipPath><clipPath id="34b130cad0"><path d="M 13.542969 0.351562 L 23.167969 0.351562 C 26.542969 0.351562 29.777344 1.691406 32.164062 4.078125 C 34.550781 6.464844 35.890625 9.703125 35.890625 13.078125 L 35.890625 21.90625 C 35.890625 25.28125 34.550781 28.519531 32.164062 30.90625 C 29.777344 33.292969 26.542969 34.632812 23.167969 34.632812 L 13.542969 34.632812 C 10.167969 34.632812 6.929688 33.292969 4.542969 30.90625 C 2.15625 28.519531 0.816406 25.28125 0.816406 21.90625 L 0.816406 13.078125 C 0.816406 9.703125 2.15625 6.464844 4.542969 4.078125 C 6.929688 1.691406 10.167969 0.351562 13.542969 0.351562 " clip-rule="nonzero"/></clipPath><clipPath id="d5b96ff250"><rect x="0" width="37" y="0" height="36"/></clipPath><mask id="09f6b647c8"><g filter="url(#7a8325dee3)"><rect x="-90" width="1080" fill="#000000" y="-52.500001" height="630.000008" fill-opacity="0.3882"/></g></mask><clipPath id="9a0c3640ea"><path d="M 0.976562 0.835938 L 36.066406 0.835938 L 36.066406 35.925781 L 0.976562 35.925781 Z M 0.976562 0.835938 " clip-rule="nonzero"/></clipPath><clipPath id="8e97151730"><path d="M 13.703125 0.835938 L 23.328125 0.835938 C 26.703125 0.835938 29.941406 2.175781 32.328125 4.5625 C 34.710938 6.949219 36.054688 10.1875 36.054688 13.5625 L 36.054688 22.390625 C 36.054688 25.765625 34.710938 29.003906 32.328125 31.390625 C 29.941406 33.777344 26.703125 35.117188 23.328125 35.117188 L 13.703125 35.117188 C 10.328125 35.117188 7.089844 33.777344 4.703125 31.390625 C 2.320312 29.003906 0.976562 25.765625 0.976562 22.390625 L 0.976562 13.5625 C 0.976562 10.1875 2.320312 6.949219 4.703125 4.5625 C 7.089844 2.175781 10.328125 0.835938 13.703125 0.835938 " clip-rule="nonzero"/></clipPath><clipPath id="ed6df8d57f"><rect x="0" width="37" y="0" height="36"/></clipPath><mask id="f41343317a"><g filter="url(#7a8325dee3)"><rect x="-90" width="1080" fill="#000000" y="-52.500001" height="630.000008" fill-opacity="0.3882"/></g></mask><clipPath id="6e2d278371"><path d="M 0.164062 0.792969 L 35.253906 0.792969 L 35.253906 35.882812 L 0.164062 35.882812 Z M 0.164062 0.792969 " clip-rule="nonzero"/></clipPath><clipPath id="0157fcd9e9"><path d="M 12.890625 0.792969 L 22.515625 0.792969 C 25.890625 0.792969 29.128906 2.132812 31.511719 4.519531 C 33.898438 6.90625 35.242188 10.140625 35.242188 13.515625 L 35.242188 22.347656 C 35.242188 25.722656 33.898438 28.957031 31.511719 31.34375 C 29.128906 33.730469 25.890625 35.070312 22.515625 35.070312 L 12.890625 35.070312 C 9.515625 35.070312 6.277344 33.730469 3.890625 31.34375 C 1.507812 28.957031 0.164062 25.722656 0.164062 22.347656 L 0.164062 13.515625 C 0.164062 10.140625 1.507812 6.90625 3.890625 4.519531 C 6.277344 2.132812 9.515625 0.792969 12.890625 0.792969 " clip-rule="nonzero"/></clipPath><clipPath id="16f21461f2"><rect x="0" width="36" y="0" height="36"/></clipPath><mask id="a8779844d8"><g filter="url(#7a8325dee3)"><rect x="-90" width="1080" fill="#000000" y="-52.500001" height="630.000008" fill-opacity="0.3882"/></g></mask><clipPath id="bef34d6a7e"><path d="M 0.554688 0.683594 L 35.644531 0.683594 L 35.644531 35 L 0.554688 35 Z M 0.554688 0.683594 " clip-rule="nonzero"/></clipPath><clipPath id="fe9cd2f7f3"><path d="M 13.28125 0.683594 L 22.90625 0.683594 C 26.28125 0.683594 29.519531 2.023438 31.902344 4.410156 C 34.289062 6.796875 35.632812 10.03125 35.632812 13.40625 L 35.632812 22.234375 C 35.632812 25.609375 34.289062 28.847656 31.902344 31.234375 C 29.519531 33.621094 26.28125 34.960938 22.90625 34.960938 L 13.28125 34.960938 C 9.90625 34.960938 6.667969 33.621094 4.28125 31.234375 C 1.894531 28.847656 0.554688 25.609375 0.554688 22.234375 L 0.554688 13.40625 C 0.554688 10.03125 1.894531 6.796875 4.28125 4.410156 C 6.667969 2.023438 9.90625 0.683594 13.28125 0.683594 " clip-rule="nonzero"/></clipPath><clipPath id="021f2be1d4"><rect x="0" width="36" y="0" height="36"/></clipPath></defs><g clip-path="url(#77b6dd3928)"><path fill="#ffffff" d="M 0.855469 0 L 899.144531 0 L 899.144531 531.488281 L 0.855469 531.488281 Z M 0.855469 0 " fill-opacity="1" fill-rule="nonzero"/><path fill="#ffffff" d="M 0.855469 0 L 899.144531 0 L 899.144531 524 L 0.855469 524 Z M 0.855469 0 " fill-opacity="1" fill-rule="nonzero"/><path fill="#ffffff" d="M 0.855469 0 L 899.144531 0 L 899.144531 524 L 0.855469 524 Z M 0.855469 0 " fill-opacity="1" fill-rule="nonzero"/></g><g clip-path="url(#8ab7dea648)"><g clip-path="url(#ced634f871)"><path fill="#000000" d="M 66.726562 223.726562 L 126.34375 223.726562 L 126.34375 283.34375 L 66.726562 283.34375 Z M 66.726562 223.726562 " fill-opacity="1" fill-rule="nonzero"/></g></g><g fill="#ffffff" fill-opacity="1"><g transform="translate(89.498708, 260.405564)"><g><path d="M 13.46875 0 L 11.578125 0 L 10.203125 -4.109375 L 3.828125 -4.109375 L 2.4375 0 L 0.59375 0 L 5.8125 -14.953125 L 8.25 -14.953125 Z M 6.890625 -13.140625 L 4.3125 -5.578125 L 9.703125 -5.578125 L 7.140625 -13.140625 Z M 6.890625 -13.140625 "/></g></g></g><g clip-path="url(#19fe0cc7f3)"><g clip-path="url(#224f548d90)"><path fill="#000000" d="M 274.367188 28.523438 L 333.988281 28.523438 L 333.988281 88.144531 L 274.367188 88.144531 Z M 274.367188 28.523438 " fill-opacity="1" fill-rule="nonzero"/></g></g><g fill="#ffffff" fill-opacity="1"><g transform="translate(296.966546, 65.203845)"><g><path d="M 2.265625 0 L 2.265625 -14.953125 L 7.921875 -14.953125 C 8.847656 -14.953125 9.628906 -14.804688 10.265625 -14.515625 C 10.910156 -14.222656 11.394531 -13.804688 11.71875 -13.265625 C 12.039062 -12.722656 12.203125 -12.078125 12.203125 -11.328125 C 12.203125 -10.679688 12.023438 -10.09375 11.671875 -9.5625 C 11.328125 -9.039062 10.828125 -8.632812 10.171875 -8.34375 L 10.171875 -8.125 C 11.160156 -7.875 11.910156 -7.425781 12.421875 -6.78125 C 12.941406 -6.132812 13.203125 -5.320312 13.203125 -4.34375 C 13.203125 -2.945312 12.796875 -1.875 11.984375 -1.125 C 11.171875 -0.375 9.960938 0 8.359375 0 Z M 7.84375 -8.671875 C 8.664062 -8.671875 9.304688 -8.882812 9.765625 -9.3125 C 10.222656 -9.75 10.453125 -10.347656 10.453125 -11.109375 C 10.453125 -11.910156 10.234375 -12.507812 9.796875 -12.90625 C 9.359375 -13.300781 8.707031 -13.5 7.84375 -13.5 L 4.015625 -13.5 L 4.015625 -8.671875 Z M 8.21875 -1.453125 C 10.351562 -1.453125 11.421875 -2.414062 11.421875 -4.34375 C 11.421875 -6.257812 10.351562 -7.21875 8.21875 -7.21875 L 4.015625 -7.21875 L 4.015625 -1.453125 Z M 8.21875 -1.453125 "/></g></g></g><g clip-path="url(#5638f4bfbe)"><g clip-path="url(#d64713a184)"><path fill="#000000" d="M 197.210938 435.109375 L 256.832031 435.109375 L 256.832031 494.730469 L 197.210938 494.730469 Z M 197.210938 435.109375 " fill-opacity="1" fill-rule="nonzero"/></g></g><g fill="#ffffff" fill-opacity="1"><g transform="translate(220.686155, 471.790071)"><g><path d="M 4.015625 -7.046875 L 4.015625 -1.453125 L 11.640625 -1.453125 L 11.640625 0 L 2.265625 0 L 2.265625 -14.953125 L 11.484375 -14.953125 L 11.484375 -13.5 L 4.015625 -13.5 L 4.015625 -8.5 L 10.59375 -8.5 L 10.59375 -7.046875 Z M 4.015625 -7.046875 "/></g></g></g><g clip-path="url(#a1c10fc1f5)"><g clip-path="url(#39d824a28d)"><path fill="#000000" d="M 393.84375 222.230469 L 453.460938 222.230469 L 453.460938 281.847656 L 393.84375 281.847656 Z M 393.84375 222.230469 " fill-opacity="1" fill-rule="nonzero"/></g></g><g fill="#ffffff" fill-opacity="1"><g transform="translate(415.69084, 258.909074)"><g><path d="M 7.09375 -14.953125 C 8.613281 -14.953125 9.914062 -14.679688 11 -14.140625 C 12.09375 -13.597656 12.929688 -12.769531 13.515625 -11.65625 C 14.109375 -10.550781 14.40625 -9.160156 14.40625 -7.484375 C 14.40625 -5.804688 14.109375 -4.410156 13.515625 -3.296875 C 12.929688 -2.179688 12.09375 -1.351562 11 -0.8125 C 9.914062 -0.269531 8.613281 0 7.09375 0 L 2.265625 0 L 2.265625 -14.953125 Z M 6.921875 -1.5 C 8.171875 -1.5 9.203125 -1.691406 10.015625 -2.078125 C 10.835938 -2.460938 11.457031 -3.09375 11.875 -3.96875 C 12.300781 -4.851562 12.515625 -6.023438 12.515625 -7.484375 C 12.515625 -8.941406 12.300781 -10.109375 11.875 -10.984375 C 11.457031 -11.859375 10.835938 -12.488281 10.015625 -12.875 C 9.203125 -13.269531 8.171875 -13.46875 6.921875 -13.46875 L 4.015625 -13.46875 L 4.015625 -1.5 Z M 6.921875 -1.5 "/></g></g></g><g clip-path="url(#97e04248c5)"><g clip-path="url(#425f67461d)"><path fill="#000000" d="M 520.96875 28.523438 L 580.589844 28.523438 L 580.589844 88.144531 L 520.96875 88.144531 Z M 520.96875 28.523438 " fill-opacity="1" fill-rule="nonzero"/></g></g><g fill="#ffffff" fill-opacity="1"><g transform="translate(543.742053, 65.203845)"><g><path d="M 13.46875 0 L 11.578125 0 L 10.203125 -4.109375 L 3.828125 -4.109375 L 2.4375 0 L 0.59375 0 L 5.8125 -14.953125 L 8.25 -14.953125 Z M 6.890625 -13.140625 L 4.3125 -5.578125 L 9.703125 -5.578125 L 7.140625 -13.140625 Z M 6.890625 -13.140625 "/></g></g></g><g clip-path="url(#4d1799af39)"><g clip-path="url(#7252d36f6b)"><path fill="#000000" d="M 773.65625 128.792969 L 833.273438 128.792969 L 833.273438 188.414062 L 773.65625 188.414062 Z M 773.65625 128.792969 " fill-opacity="1" fill-rule="nonzero"/></g></g><g fill="#ffffff" fill-opacity="1"><g transform="translate(796.42762, 165.473267)"><g><path d="M 13.46875 0 L 11.578125 0 L 10.203125 -4.109375 L 3.828125 -4.109375 L 2.4375 0 L 0.59375 0 L 5.8125 -14.953125 L 8.25 -14.953125 Z M 6.890625 -13.140625 L 4.3125 -5.578125 L 9.703125 -5.578125 L 7.140625 -13.140625 Z M 6.890625 -13.140625 "/></g></g></g><g clip-path="url(#0841af9c8b)"><g clip-path="url(#e6043203db)"><path fill="#000000" d="M 710.34375 354.632812 L 769.964844 354.632812 L 769.964844 414.25 L 710.34375 414.25 Z M 710.34375 354.632812 " fill-opacity="1" fill-rule="nonzero"/></g></g><g fill="#ffffff" fill-opacity="1"><g transform="translate(732.368575, 391.311998)"><g><path d="M 7.875 0.21875 C 6.613281 0.21875 5.503906 -0.0664062 4.546875 -0.640625 C 3.585938 -1.210938 2.835938 -2.078125 2.296875 -3.234375 C 1.765625 -4.390625 1.5 -5.804688 1.5 -7.484375 C 1.5 -9.160156 1.785156 -10.570312 2.359375 -11.71875 C 2.929688 -12.875 3.726562 -13.738281 4.75 -14.3125 C 5.78125 -14.882812 6.960938 -15.171875 8.296875 -15.171875 C 9.734375 -15.171875 10.910156 -14.910156 11.828125 -14.390625 C 12.742188 -13.878906 13.394531 -13.113281 13.78125 -12.09375 L 12.640625 -11.421875 L 12.375 -11.421875 C 11.988281 -12.191406 11.460938 -12.742188 10.796875 -13.078125 C 10.140625 -13.421875 9.304688 -13.59375 8.296875 -13.59375 C 5.015625 -13.59375 3.375 -11.554688 3.375 -7.484375 C 3.375 -5.359375 3.785156 -3.804688 4.609375 -2.828125 C 5.441406 -1.859375 6.597656 -1.375 8.078125 -1.375 C 9.441406 -1.375 10.460938 -1.679688 11.140625 -2.296875 C 11.828125 -2.921875 12.171875 -3.898438 12.171875 -5.234375 L 12.171875 -6.5625 L 7.90625 -6.5625 L 7.90625 -7.96875 L 13.875 -7.96875 L 13.875 0 L 12.25 0 L 12.25 -2 L 12.03125 -2.0625 C 11.632812 -1.289062 11.082031 -0.71875 10.375 -0.34375 C 9.675781 0.03125 8.84375 0.21875 7.875 0.21875 Z M 7.875 0.21875 "/></g></g></g><g clip-path="url(#aa9edf2fe1)"><g clip-path="url(#1aa35f9a94)"><path fill="#000000" d="M 485.894531 441.308594 L 545.511719 441.308594 L 545.511719 500.929688 L 485.894531 500.929688 Z M 485.894531 441.308594 " fill-opacity="1" fill-rule="nonzero"/></g></g><g fill="#ffffff" fill-opacity="1"><g transform="translate(509.765757, 477.988983)"><g><path d="M 11.046875 -14.953125 L 11.046875 -13.5 L 4.015625 -13.5 L 4.015625 -8.0625 L 10.34375 -8.0625 L 10.34375 -6.59375 L 4.015625 -6.59375 L 4.015625 0 L 2.265625 0 L 2.265625 -14.953125 Z M 11.046875 -14.953125 "/></g></g></g><path stroke-linecap="butt" transform="matrix(0.719309, -0.209902, 0.209696, 0.718603, 453.041971, 250.600091)" fill="none" stroke-linejoin="miter" d="M -0.00120563 2.002104 L 445.577569 1.9975 " stroke="#000000" stroke-width="4" stroke-opacity="1" stroke-miterlimit="4"/><path stroke-linecap="butt" transform="matrix(-0.74923, -0.000000000000000092, 0.000000000000000092, -0.748574, 520.968425, 59.830716)" fill="none" stroke-linejoin="miter" d="M -0.000433402 2.002052 L 249.782165 2.002052 " stroke="#000000" stroke-width="4" stroke-opacity="1" stroke-miterlimit="4"/><path stroke-linecap="butt" transform="matrix(0.665216, 0.345482, -0.345019, 0.664323, 581.2783, 57.006812)" fill="none" stroke-linejoin="miter" d="M 0.00216698 1.999595 L 290.619994 1.998106 " stroke="#000000" stroke-width="4" stroke-opacity="1" stroke-miterlimit="4"/><path stroke-linecap="butt" transform="matrix(0.266904, -0.700745, 0.699549, 0.266448, 738.751227, 354.093709)" fill="none" stroke-linejoin="miter" d="M 0.00110499 1.996881 L 237.607477 2.002365 " stroke="#000000" stroke-width="4" stroke-opacity="1" stroke-miterlimit="4"/><path stroke-linecap="butt" transform="matrix(0.663136, -0.348712, 0.348406, 0.662553, 544.816128, 469.79357)" fill="none" stroke-linejoin="miter" d="M -0.000517767 1.997481 L 248.779825 2.001563 " stroke="#000000" stroke-width="4" stroke-opacity="1" stroke-miterlimit="4"/><path stroke-linecap="butt" transform="matrix(-0.362541, -0.653864, 0.654676, -0.362991, 195.898265, 465.643571)" fill="none" stroke-linejoin="miter" d="M -0.0000653396 1.999069 L 277.352521 2.000625 " stroke="#000000" stroke-width="4" stroke-opacity="1" stroke-miterlimit="4"/><path stroke-linecap="butt" transform="matrix(0.748033, 0.0202435, -0.0202507, 0.7483, 256.871542, 463.423192)" fill="none" stroke-linejoin="miter" d="M 0.00125795 1.997529 L 306.111565 2.000842 " stroke="#000000" stroke-width="4" stroke-opacity="1" stroke-miterlimit="4"/><path stroke-linecap="butt" transform="matrix(-0.547436, 0.509137, -0.5098, -0.548149, 275.386384, 59.430711)" fill="none" stroke-linejoin="miter" d="M 0.000993761 1.998142 L 324.424702 1.998564 " stroke="#000000" stroke-width="4" stroke-opacity="1" stroke-miterlimit="4"/><path stroke-linecap="butt" transform="matrix(-0.747842, 0.00418375, -0.00418778, -0.748562, 393.847886, 253.535905)" fill="none" stroke-linejoin="miter" d="M -0.000442958 1.99962 L 357.345314 1.998219 " stroke="#000000" stroke-width="4" stroke-opacity="1" stroke-miterlimit="4"/><path stroke-linecap="butt" transform="matrix(0.246337, -0.706836, 0.706877, 0.246351, 452.044199, 251.541102)" fill="none" stroke-linejoin="miter" d="M -0.00211118 1.999432 L 274.029235 1.9993 " stroke="#000000" stroke-width="4" stroke-opacity="1" stroke-miterlimit="4"/><path stroke-linecap="butt" transform="matrix(0.665282, 0.342901, -0.342957, 0.66539, 454.147441, 250.708108)" fill="none" stroke-linejoin="miter" d="M -0.000594272 2.000568 L 386.061975 2.002815 " stroke="#000000" stroke-width="4" stroke-opacity="1" stroke-miterlimit="4"/><path stroke-linecap="butt" transform="matrix(0.504409, -0.553545, 0.553309, 0.504194, 225.91379, 434.099759)" fill="none" stroke-linejoin="miter" d="M -0.0020011 2.000237 L 330.862454 1.999797 " stroke="#000000" stroke-width="4" stroke-opacity="1" stroke-miterlimit="4"/><g mask="url(#ff72fd6ee9)"><g transform="matrix(1, 0, 0, 1, 129, 115)"><g clip-path="url(#b266549789)"><g clip-path="url(#7df16129c2)"><g clip-path="url(#a8608f6af8)"><path fill="#1e1e1e" d="M 0.335938 0.390625 L 35.425781 0.390625 L 35.425781 35.480469 L 0.335938 35.480469 Z M 0.335938 0.390625 " fill-opacity="1" fill-rule="nonzero"/></g></g></g></g></g><g mask="url(#437e9c1029)"><g transform="matrix(1, 0, 0, 1, 101, 368)"><g clip-path="url(#76a562985c)"><g clip-path="url(#9f4667baa5)"><g clip-path="url(#e497973816)"><path fill="#1e1e1e" d="M 1.027344 0.632812 L 36.113281 0.632812 L 36.113281 35.722656 L 1.027344 35.722656 Z M 1.027344 0.632812 " fill-opacity="1" fill-rule="nonzero"/></g></g></g></g></g><g mask="url(#cf581f7954)"><g transform="matrix(1, 0, 0, 1, 349, 477)"><g clip-path="url(#02c10d6e4c)"><g clip-path="url(#abca7f9f8b)"><g clip-path="url(#f7925e0690)"><path fill="#1e1e1e" d="M 1.054688 0.589844 L 36.144531 0.589844 L 36.144531 35.679688 L 1.054688 35.679688 Z M 1.054688 0.589844 " fill-opacity="1" fill-rule="nonzero"/></g></g></g></g></g><g mask="url(#997867550c)"><g transform="matrix(1, 0, 0, 1, 627, 430)"><g clip-path="url(#99e059c19f)"><g clip-path="url(#45291a606b)"><g clip-path="url(#488a1ad525)"><path fill="#1e1e1e" d="M 0.929688 0.640625 L 36.019531 0.640625 L 36.019531 35.730469 L 0.929688 35.730469 Z M 0.929688 0.640625 " fill-opacity="1" fill-rule="nonzero"/></g></g></g></g></g><g mask="url(#ed64b89c48)"><g transform="matrix(1, 0, 0, 1, 774, 275)"><g clip-path="url(#bb74dc4d32)"><g clip-path="url(#ab6aa495d0)"><g clip-path="url(#0b5271120a)"><path fill="#1e1e1e" d="M 0.34375 0.300781 L 35.433594 0.300781 L 35.433594 35.390625 L 0.34375 35.390625 Z M 0.34375 0.300781 " fill-opacity="1" fill-rule="nonzero"/></g></g></g></g></g><g mask="url(#2e973ede59)"><g transform="matrix(1, 0, 0, 1, 627, 207)"><g clip-path="url(#c271ae8a29)"><g clip-path="url(#908fddbcf8)"><g clip-path="url(#487099b43f)"><path fill="#1e1e1e" d="M 0.929688 0.683594 L 36.019531 0.683594 L 36.019531 35.769531 L 0.929688 35.769531 Z M 0.929688 0.683594 " fill-opacity="1" fill-rule="nonzero"/></g></g></g></g></g><g mask="url(#30893c0baf)"><g transform="matrix(1, 0, 0, 1, 684, 74)"><g clip-path="url(#66c749be52)"><g clip-path="url(#3d7b8a900d)"><g clip-path="url(#096517e3f3)"><path fill="#1e1e1e" d="M 0.742188 0.1875 L 35.828125 0.1875 L 35.828125 35.277344 L 0.742188 35.277344 Z M 0.742188 0.1875 " fill-opacity="1" fill-rule="nonzero"/></g></g></g></g></g><g mask="url(#2dd17140ab)"><g transform="matrix(1, 0, 0, 1, 405, 11)"><g clip-path="url(#5c4a7ebe1f)"><g clip-path="url(#f6a9db180a)"><g clip-path="url(#37a382398d)"><path fill="#1e1e1e" d="M 1.113281 1.132812 L 36.203125 1.132812 L 36.203125 36.222656 L 1.113281 36.222656 Z M 1.113281 1.132812 " fill-opacity="1" fill-rule="nonzero"/></g></g></g></g></g><g mask="url(#929ea3c584)"><g transform="matrix(1, 0, 0, 1, 544, 320)"><g clip-path="url(#d5b96ff250)"><g clip-path="url(#cfc7f2f121)"><g clip-path="url(#34b130cad0)"><path fill="#1e1e1e" d="M 0.816406 0.351562 L 35.90625 0.351562 L 35.90625 35.441406 L 0.816406 35.441406 Z M 0.816406 0.351562 " fill-opacity="1" fill-rule="nonzero"/></g></g></g></g></g><g mask="url(#09f6b647c8)"><g transform="matrix(1, 0, 0, 1, 314, 348)"><g clip-path="url(#ed6df8d57f)"><g clip-path="url(#9a0c3640ea)"><g clip-path="url(#8e97151730)"><path fill="#1e1e1e" d="M 0.976562 0.835938 L 36.066406 0.835938 L 36.066406 35.925781 L 0.976562 35.925781 Z M 0.976562 0.835938 " fill-opacity="1" fill-rule="nonzero"/></g></g></g></g></g><g mask="url(#f41343317a)"><g transform="matrix(1, 0, 0, 1, 498, 142)"><g clip-path="url(#16f21461f2)"><g clip-path="url(#6e2d278371)"><g clip-path="url(#0157fcd9e9)"><path fill="#1e1e1e" d="M 0.164062 0.792969 L 35.253906 0.792969 L 35.253906 35.882812 L 0.164062 35.882812 Z M 0.164062 0.792969 " fill-opacity="1" fill-rule="nonzero"/></g></g></g></g></g><g mask="url(#a8779844d8)"><g transform="matrix(1, 0, 0, 1, 242, 207)"><g clip-path="url(#021f2be1d4)"><g clip-path="url(#bef34d6a7e)"><g clip-path="url(#fe9cd2f7f3)"><path fill="#1e1e1e" d="M 0.554688 0.683594 L 35.644531 0.683594 L 35.644531 35.769531 L 0.554688 35.769531 Z M 0.554688 0.683594 " fill-opacity="1" fill-rule="nonzero"/></g></g></g></g></g></svg>